<svg width="35" height="35" viewBox="0 0 35 35" fill="none" xmlns="http://www.w3.org/2000/svg">
<path d="M17.4999 17.5C15.8958 17.5 14.5225 16.9288 13.3801 15.7864C12.2378 14.6441 11.6666 13.2708 11.6666 11.6666C11.6666 10.0625 12.2378 8.68922 13.3801 7.54685C14.5225 6.40449 15.8958 5.83331 17.4999 5.83331C19.1041 5.83331 20.4774 6.40449 21.6197 7.54685C22.7621 8.68922 23.3333 10.0625 23.3333 11.6666C23.3333 13.2708 22.7621 14.6441 21.6197 15.7864C20.4774 16.9288 19.1041 17.5 17.4999 17.5ZM5.83325 29.1666V25.0833C5.83325 24.2569 6.04593 23.4974 6.47127 22.8047C6.89662 22.112 7.46172 21.5833 8.16659 21.2187C9.67353 20.4653 11.2048 19.9002 12.7603 19.5234C14.3159 19.1467 15.8958 18.9583 17.4999 18.9583C19.1041 18.9583 20.6839 19.1467 22.2395 19.5234C23.7951 19.9002 25.3263 20.4653 26.8333 21.2187C27.5381 21.5833 28.1032 22.112 28.5286 22.8047C28.9539 23.4974 29.1666 24.2569 29.1666 25.0833V29.1666H5.83325ZM8.74992 26.25H26.2499V25.0833C26.2499 24.816 26.1831 24.5729 26.0494 24.3541C25.9157 24.1354 25.7395 23.9653 25.5208 23.8437C24.2083 23.1875 22.8836 22.6953 21.5468 22.3672C20.21 22.039 18.861 21.875 17.4999 21.875C16.1388 21.875 14.7899 22.039 13.453 22.3672C12.1162 22.6953 10.7916 23.1875 9.47909 23.8437C9.26034 23.9653 9.08412 24.1354 8.95044 24.3541C8.81676 24.5729 8.74992 24.816 8.74992 25.0833V26.25ZM17.4999 14.5833C18.302 14.5833 18.9886 14.2977 19.5598 13.7265C20.131 13.1554 20.4166 12.4687 20.4166 11.6666C20.4166 10.8646 20.131 10.1779 19.5598 9.60675C18.9886 9.03557 18.302 8.74998 17.4999 8.74998C16.6978 8.74998 16.0112 9.03557 15.44 9.60675C14.8688 10.1779 14.5833 10.8646 14.5833 11.6666C14.5833 12.4687 14.8688 13.1554 15.44 13.7265C16.0112 14.2977 16.6978 14.5833 17.4999 14.5833Z" fill="#99B564"/>
</svg>
