<svg width="32" height="32" viewBox="0 0 32 32" fill="none" xmlns="http://www.w3.org/2000/svg">
<path d="M28.6359 31.3305L17.7681 20.4627C16.9055 21.1527 15.9136 21.699 14.7924 22.1015C13.6711 22.504 12.4779 22.7053 11.2129 22.7053C8.07901 22.7053 5.42674 21.6199 3.25604 19.4492C1.08535 17.2785 0 14.6263 0 11.4924C0 8.35855 1.08535 5.70628 3.25604 3.53558C5.42674 1.36489 8.07901 0.279541 11.2129 0.279541C14.3467 0.279541 16.999 1.36489 19.1697 3.53558C21.3404 5.70628 22.4257 8.35855 22.4257 11.4924C22.4257 12.7574 22.2245 13.9506 21.822 15.0719C21.4194 16.1932 20.8732 17.1851 20.1832 18.0476L31.051 28.9155L28.6359 31.3305ZM11.2129 19.2552C13.3692 19.2552 15.2021 18.5004 16.7115 16.991C18.2209 15.4816 18.9756 13.6487 18.9756 11.4924C18.9756 9.33609 18.2209 7.50321 16.7115 5.99379C15.2021 4.48436 13.3692 3.72965 11.2129 3.72965C9.05654 3.72965 7.22367 4.48436 5.71425 5.99379C4.20482 7.50321 3.45011 9.33609 3.45011 11.4924C3.45011 13.6487 4.20482 15.4816 5.71425 16.991C7.22367 18.5004 9.05654 19.2552 11.2129 19.2552Z" fill="#99B564"/>
</svg>
