<svg width="56" height="53" viewBox="0 0 56 53" fill="none" xmlns="http://www.w3.org/2000/svg">
<path d="M30.3333 50.7917V37.5417L25.4333 33.125L23.1 42.8417L7 39.75L7.93333 35.3333L19.1333 37.5417L22.8667 19.6542L18.6667 21.2V28.7083H14V18.3292L23.2167 14.575C24.5778 14.0229 25.5792 13.6641 26.2208 13.4984C26.8625 13.3328 27.4556 13.25 28 13.25C28.8167 13.25 29.575 13.4524 30.275 13.8573C30.975 14.2622 31.5389 14.7958 31.9667 15.4583L34.3 18.9917C35.3111 20.5375 36.6819 21.8073 38.4125 22.801C40.1431 23.7948 42.1167 24.2917 44.3333 24.2917V28.7083C41.7667 28.7083 39.3653 28.2023 37.1292 27.1901C34.8931 26.178 33.0167 24.8438 31.5 23.1875L30.1 29.8125L35 34.2292V50.7917H30.3333ZM31.5 12.1458C30.2167 12.1458 29.1181 11.7134 28.2042 10.8484C27.2903 9.98351 26.8333 8.94375 26.8333 7.72917C26.8333 6.51458 27.2903 5.47483 28.2042 4.6099C29.1181 3.74497 30.2167 3.3125 31.5 3.3125C32.7833 3.3125 33.8819 3.74497 34.7958 4.6099C35.7097 5.47483 36.1667 6.51458 36.1667 7.72917C36.1667 8.94375 35.7097 9.98351 34.7958 10.8484C33.8819 11.7134 32.7833 12.1458 31.5 12.1458Z" fill="#99B564"/>
</svg>
